<?xml version="1.0" encoding="UTF-8" standalone="no"?>
<!DOCTYPE svg PUBLIC "-//W3C//DTD SVG 1.1//EN" "http://www.w3.org/Graphics/SVG/1.1/DTD/svg11.dtd">
<svg version="1.1" xmlns="http://www.w3.org/2000/svg" xmlns:xlink="http://www.w3.org/1999/xlink" preserveAspectRatio="xMidYMid meet" viewBox="0 0 70 70" width="100%" height="100%"><defs><path d="M30.77 0.09L31.92 0.21L33.05 0.37L34.17 0.57L35.27 0.81L36.36 1.1L37.43 1.43L38.48 1.8L39.51 2.2L40.52 2.65L41.51 3.13L42.47 3.65L43.42 4.2L44.34 4.79L45.23 5.41L46.1 6.06L46.94 6.75L47.76 7.47L48.55 8.21L49.3 8.99L50.03 9.79L50.72 10.62L51.39 11.48L52.02 12.36L52.61 13.27L53.18 14.2L53.7 15.15L54.19 16.13L54.64 17.12L55.05 18.14L55.43 19.18L55.76 20.23L56.05 21.3L56.3 22.39L56.5 23.49L56.66 24.61L56.78 25.74L56.85 26.88L56.88 28.04L56.85 29.19L56.78 30.34L56.66 31.47L56.5 32.59L56.3 33.69L56.05 34.78L55.76 35.85L55.43 36.9L55.05 37.94L54.64 38.95L54.19 39.95L53.7 40.92L53.18 41.88L52.61 42.81L52.04 43.68L70 61.39L62.27 69.02L44.31 51.31L43.42 51.88L42.47 52.43L41.51 52.95L40.52 53.43L39.51 53.87L38.48 54.28L37.43 54.65L36.36 54.98L35.27 55.26L34.17 55.51L33.05 55.71L31.92 55.87L30.77 55.98L29.61 56.05L28.44 56.08L27.27 56.05L26.11 55.98L24.96 55.87L23.82 55.71L22.71 55.51L21.6 55.26L20.52 54.98L19.45 54.65L18.4 54.28L17.37 53.87L16.36 53.43L15.37 52.95L14.4 52.43L13.46 51.88L12.54 51.29L11.64 50.67L10.77 50.01L9.93 49.33L9.12 48.61L8.33 47.87L7.57 47.09L6.85 46.29L6.15 45.46L5.49 44.6L4.86 43.72L4.26 42.81L3.7 41.88L3.17 40.92L2.69 39.95L2.23 38.95L1.82 37.94L1.45 36.9L1.12 35.85L0.83 34.78L0.58 33.69L0.37 32.59L0.21 31.47L0.09 30.34L0.02 29.19L0 28.04L0.02 26.88L0.09 25.74L0.21 24.61L0.37 23.49L0.58 22.39L0.83 21.3L1.12 20.23L1.45 19.18L1.82 18.14L2.23 17.12L2.69 16.13L3.17 15.15L3.7 14.2L4.26 13.27L4.86 12.36L5.49 11.48L6.15 10.62L6.85 9.79L7.57 8.99L8.33 8.21L9.12 7.47L9.93 6.75L10.77 6.06L11.64 5.41L12.54 4.79L13.46 4.2L14.4 3.65L15.37 3.13L16.36 2.65L17.37 2.2L18.4 1.8L19.45 1.43L20.52 1.1L21.6 0.81L22.71 0.57L23.82 0.37L24.96 0.21L26.11 0.09L27.27 0.02L28.44 0L29.61 0.02L30.77 0.09ZM27 10.8L26.29 10.87L25.59 10.96L24.9 11.09L24.22 11.24L23.55 11.42L22.89 11.62L22.24 11.85L21.61 12.1L20.98 12.37L20.37 12.67L19.78 12.99L19.19 13.33L18.63 13.69L18.07 14.08L17.54 14.48L17.02 14.9L16.52 15.34L16.03 15.81L15.56 16.28L15.11 16.78L14.69 17.29L14.28 17.82L13.89 18.37L13.52 18.93L13.17 19.5L12.85 20.09L12.55 20.69L12.27 21.3L12.02 21.93L11.79 22.57L11.58 23.22L11.4 23.88L11.25 24.55L11.12 25.23L11.02 25.92L10.95 26.62L10.91 27.33L10.89 28.04L10.91 28.75L10.95 29.46L11.02 30.16L11.12 30.85L11.25 31.53L11.4 32.2L11.58 32.86L11.79 33.51L12.02 34.15L12.27 34.77L12.55 35.39L12.85 35.99L13.17 36.58L13.52 37.15L13.89 37.71L14.28 38.26L14.69 38.79L15.11 39.3L15.56 39.79L16.03 40.27L16.52 40.73L17.02 41.17L17.54 41.6L18.07 42L18.63 42.38L19.19 42.75L19.78 43.09L20.37 43.41L20.98 43.71L21.61 43.98L22.24 44.23L22.89 44.46L23.55 44.66L24.22 44.84L24.9 44.99L25.59 45.11L26.29 45.21L27 45.28L27.71 45.32L28.44 45.34L29.16 45.32L29.88 45.28L30.58 45.21L31.28 45.11L31.97 44.99L32.65 44.84L33.32 44.66L33.98 44.46L34.63 44.23L35.27 43.98L35.89 43.71L36.5 43.41L37.1 43.09L37.68 42.75L38.25 42.38L38.8 42L39.34 41.6L39.86 41.17L40.36 40.73L40.84 40.27L41.31 39.79L41.76 39.3L42.19 38.79L42.6 38.26L42.99 37.71L43.36 37.15L43.7 36.58L44.03 35.99L44.33 35.39L44.61 34.77L44.86 34.15L45.09 33.51L45.29 32.86L45.47 32.2L45.63 31.53L45.75 30.85L45.85 30.16L45.93 29.46L45.97 28.75L45.98 28.04L45.97 27.33L45.93 26.62L45.85 25.92L45.75 25.23L45.63 24.55L45.47 23.88L45.29 23.22L45.09 22.57L44.86 21.93L44.61 21.3L44.33 20.69L44.03 20.09L43.7 19.5L43.36 18.93L42.99 18.37L42.6 17.82L42.19 17.29L41.76 16.78L41.31 16.28L40.84 15.81L40.36 15.34L39.86 14.9L39.34 14.48L38.8 14.08L38.25 13.69L37.68 13.33L37.1 12.99L36.5 12.67L35.89 12.37L35.27 12.1L34.63 11.85L33.98 11.62L33.32 11.42L32.65 11.24L31.97 11.09L31.28 10.96L30.58 10.87L29.88 10.8L29.16 10.75L28.44 10.74L27.71 10.75L27 10.8Z" id="a8LOuVaUc"></path></defs><g><g><g><use xlink:href="#a8LOuVaUc" opacity="1" fill="#000000" fill-opacity="1"></use></g></g></g></svg>